<mxfile host="app.diagrams.net" modified="2021-11-11T18:58:53.201Z" agent="5.0 (Windows NT 10.0; Win64; x64) AppleWebKit/537.36 (KHTML, like Gecko) Chrome/95.0.4638.69 Safari/537.36" etag="p_UnZJHlgwsOh7hYCCcW" version="15.7.1" type="github">
  <diagram id="U1IOnvGZ2x90TzW7vy6P" name="Page-1">
    <mxGraphModel dx="2302" dy="982" grid="1" gridSize="10" guides="1" tooltips="1" connect="1" arrows="1" fold="1" page="0" pageScale="1" pageWidth="850" pageHeight="1100" background="none" math="0" shadow="0">
      <root>
        <mxCell id="0" />
        <mxCell id="1" parent="0" />
        <mxCell id="Z8JrCsb7fR4ESpWNixtX-53" value="&lt;font style=&quot;font-size: 8px&quot;&gt;&lt;b&gt;&lt;br&gt;&lt;/b&gt;&lt;/font&gt;" style="points=[[0,0],[0.25,0],[0.5,0],[0.75,0],[1,0],[1,0.25],[1,0.5],[1,0.75],[1,1],[0.75,1],[0.5,1],[0.25,1],[0,1],[0,0.75],[0,0.5],[0,0.25]];outlineConnect=0;gradientColor=none;html=1;whiteSpace=wrap;fontSize=12;fontStyle=0;shape=mxgraph.aws4.group;grIcon=mxgraph.aws4.group_security_group;grStroke=0;strokeColor=#147EBA;fillColor=#E6F2F8;verticalAlign=top;align=left;spacingLeft=30;fontColor=#147EBA;dashed=0;" parent="1" vertex="1">
          <mxGeometry x="-760" y="290" width="590" height="250" as="geometry" />
        </mxCell>
        <mxCell id="lpuHCffD4JkNgTEEeOqD-109" value="&lt;font color=&quot;#3333ff&quot;&gt;&lt;b&gt;AZ1 (us-east-1a)&lt;/b&gt;&lt;/font&gt;" style="sketch=0;outlineConnect=0;gradientColor=none;html=1;whiteSpace=wrap;fontSize=12;fontStyle=0;shape=mxgraph.aws4.group;grIcon=mxgraph.aws4.group_availability_zone;strokeColor=#545B64;fillColor=none;verticalAlign=top;align=left;spacingLeft=30;fontColor=#545B64;dashed=1;strokeWidth=2;" parent="1" vertex="1">
          <mxGeometry x="-775" width="300" height="570" as="geometry" />
        </mxCell>
        <mxCell id="yngDd88oYSayp2hVPGJs-2" value="Control Edge" style="points=[[0,0],[0.25,0],[0.5,0],[0.75,0],[1,0],[1,0.25],[1,0.5],[1,0.75],[1,1],[0.75,1],[0.5,1],[0.25,1],[0,1],[0,0.75],[0,0.5],[0,0.25]];outlineConnect=0;gradientColor=none;html=1;whiteSpace=wrap;fontSize=12;fontStyle=0;shape=mxgraph.aws4.group;grIcon=mxgraph.aws4.group_ec2_instance_contents;strokeColor=#D86613;fillColor=none;verticalAlign=top;align=left;spacingLeft=30;fontColor=#D86613;dashed=0;" parent="1" vertex="1">
          <mxGeometry x="-664.06" y="300" width="444.06" height="80" as="geometry" />
        </mxCell>
        <mxCell id="lpuHCffD4JkNgTEEeOqD-110" value="&lt;b style=&quot;color: rgb(51 , 51 , 255)&quot;&gt;AZ2 (us-east-1b)&lt;/b&gt;" style="sketch=0;outlineConnect=0;gradientColor=none;html=1;whiteSpace=wrap;fontSize=12;fontStyle=0;shape=mxgraph.aws4.group;grIcon=mxgraph.aws4.group_availability_zone;strokeColor=#545B64;fillColor=none;verticalAlign=top;align=left;spacingLeft=30;fontColor=#545B64;dashed=1;strokeWidth=2;" parent="1" vertex="1">
          <mxGeometry x="-460" width="300" height="570" as="geometry" />
        </mxCell>
        <mxCell id="bLzHMF0ZNOxPYIElKsiN-1" value="&lt;font style=&quot;font-size: 8px&quot;&gt;&lt;b&gt;Public&amp;nbsp;&amp;nbsp;&lt;/b&gt;&lt;b style=&quot;color: rgb(20 , 126 , 186) ; font-size: 12px&quot;&gt;&lt;font color=&quot;#3333ff&quot;&gt;/28&lt;/font&gt;&lt;/b&gt;&lt;b&gt;&lt;br&gt;subnet&lt;/b&gt;&lt;/font&gt;" style="points=[[0,0],[0.25,0],[0.5,0],[0.75,0],[1,0],[1,0.25],[1,0.5],[1,0.75],[1,1],[0.75,1],[0.5,1],[0.25,1],[0,1],[0,0.75],[0,0.5],[0,0.25]];outlineConnect=0;gradientColor=none;html=1;whiteSpace=wrap;fontSize=12;fontStyle=0;shape=mxgraph.aws4.group;grIcon=mxgraph.aws4.group_security_group;grStroke=0;strokeColor=#248814;fillColor=#E9F3E6;verticalAlign=top;align=left;spacingLeft=30;fontColor=#248814;strokeWidth=5;perimeterSpacing=3;" parent="1" vertex="1">
          <mxGeometry x="-760" y="20" width="270" height="50" as="geometry" />
        </mxCell>
        <mxCell id="bLzHMF0ZNOxPYIElKsiN-8" value="&lt;font style=&quot;font-size: 8px&quot;&gt;&lt;b&gt;Public&amp;nbsp;&lt;/b&gt;&lt;b style=&quot;color: rgb(20 , 126 , 186) ; font-size: 12px&quot;&gt;&lt;font color=&quot;#3333ff&quot;&gt;/28&lt;/font&gt;&lt;/b&gt;&lt;b&gt;&lt;br&gt;subnet&lt;/b&gt;&lt;/font&gt;" style="points=[[0,0],[0.25,0],[0.5,0],[0.75,0],[1,0],[1,0.25],[1,0.5],[1,0.75],[1,1],[0.75,1],[0.5,1],[0.25,1],[0,1],[0,0.75],[0,0.5],[0,0.25]];outlineConnect=0;gradientColor=none;html=1;whiteSpace=wrap;fontSize=12;fontStyle=0;shape=mxgraph.aws4.group;grIcon=mxgraph.aws4.group_security_group;grStroke=0;strokeColor=#248814;fillColor=#E9F3E6;verticalAlign=top;align=left;spacingLeft=30;fontColor=#248814;dashed=0;" parent="1" vertex="1">
          <mxGeometry x="-420" y="25" width="240" height="50" as="geometry" />
        </mxCell>
        <mxCell id="bLzHMF0ZNOxPYIElKsiN-14" value="&lt;font&gt;&lt;b&gt;&lt;span style=&quot;font-size: 8px&quot;&gt;CDPA APP &lt;/span&gt;&lt;font color=&quot;#3333ff&quot; style=&quot;font-size: 12px&quot;&gt;/27&lt;/font&gt;&lt;br&gt;&lt;/b&gt;&lt;/font&gt;" style="points=[[0,0],[0.25,0],[0.5,0],[0.75,0],[1,0],[1,0.25],[1,0.5],[1,0.75],[1,1],[0.75,1],[0.5,1],[0.25,1],[0,1],[0,0.75],[0,0.5],[0,0.25]];outlineConnect=0;gradientColor=none;html=1;whiteSpace=wrap;fontSize=12;fontStyle=0;shape=mxgraph.aws4.group;grIcon=mxgraph.aws4.group_security_group;grStroke=0;strokeColor=#147EBA;fillColor=#E6F2F8;verticalAlign=top;align=left;spacingLeft=30;fontColor=#147EBA;dashed=0;" parent="1" vertex="1">
          <mxGeometry x="-760" y="90" width="270" height="100" as="geometry" />
        </mxCell>
        <mxCell id="bLzHMF0ZNOxPYIElKsiN-19" value="" style="sketch=0;points=[[0,0,0],[0.25,0,0],[0.5,0,0],[0.75,0,0],[1,0,0],[0,1,0],[0.25,1,0],[0.5,1,0],[0.75,1,0],[1,1,0],[0,0.25,0],[0,0.5,0],[0,0.75,0],[1,0.25,0],[1,0.5,0],[1,0.75,0]];outlineConnect=0;fontColor=default;gradientColor=#F78E04;gradientDirection=north;fillColor=#D05C17;strokeColor=#ffffff;dashed=0;verticalLabelPosition=bottom;verticalAlign=top;align=center;html=1;fontSize=12;fontStyle=0;aspect=fixed;shape=mxgraph.aws4.resourceIcon;resIcon=mxgraph.aws4.ec2;fontFamily=Verdana;labelBackgroundColor=none;labelBorderColor=none;" parent="1" vertex="1">
          <mxGeometry x="-560" y="25" width="20" height="20" as="geometry" />
        </mxCell>
        <UserObject label="&lt;font style=&quot;font-size: 8px&quot;&gt;&lt;b&gt;Jump Box-1&lt;/b&gt;&lt;/font&gt;" placeholders="1" name="Variable" id="bLzHMF0ZNOxPYIElKsiN-22">
          <mxCell style="text;html=1;strokeColor=none;fillColor=none;align=center;verticalAlign=middle;whiteSpace=wrap;overflow=hidden;labelBackgroundColor=none;labelBorderColor=none;fontFamily=Verdana;fontColor=default;" parent="1" vertex="1">
            <mxGeometry x="-580" y="40" width="60" height="30" as="geometry" />
          </mxCell>
        </UserObject>
        <mxCell id="bLzHMF0ZNOxPYIElKsiN-23" value="" style="sketch=0;points=[[0,0,0],[0.25,0,0],[0.5,0,0],[0.75,0,0],[1,0,0],[0,1,0],[0.25,1,0],[0.5,1,0],[0.75,1,0],[1,1,0],[0,0.25,0],[0,0.5,0],[0,0.75,0],[1,0.25,0],[1,0.5,0],[1,0.75,0]];outlineConnect=0;fontColor=default;gradientColor=#F78E04;gradientDirection=north;fillColor=#D05C17;strokeColor=#ffffff;dashed=0;verticalLabelPosition=bottom;verticalAlign=top;align=center;html=1;fontSize=12;fontStyle=0;aspect=fixed;shape=mxgraph.aws4.resourceIcon;resIcon=mxgraph.aws4.ec2;fontFamily=Verdana;labelBackgroundColor=none;labelBorderColor=none;" parent="1" vertex="1">
          <mxGeometry x="-635" y="25" width="20" height="20" as="geometry" />
        </mxCell>
        <mxCell id="Z8JrCsb7fR4ESpWNixtX-5" value="" style="sketch=0;points=[[0,0,0],[0.25,0,0],[0.5,0,0],[0.75,0,0],[1,0,0],[0,1,0],[0.25,1,0],[0.5,1,0],[0.75,1,0],[1,1,0],[0,0.25,0],[0,0.5,0],[0,0.75,0],[1,0.25,0],[1,0.5,0],[1,0.75,0]];outlineConnect=0;fontColor=default;gradientColor=#F78E04;gradientDirection=north;fillColor=#D05C17;strokeColor=#ffffff;dashed=0;verticalLabelPosition=bottom;verticalAlign=top;align=center;html=1;fontSize=12;fontStyle=0;aspect=fixed;shape=mxgraph.aws4.resourceIcon;resIcon=mxgraph.aws4.ec2;fontFamily=Verdana;labelBackgroundColor=none;labelBorderColor=none;" parent="1" vertex="1">
          <mxGeometry x="-325" y="30" width="20" height="20" as="geometry" />
        </mxCell>
        <mxCell id="Z8JrCsb7fR4ESpWNixtX-6" value="" style="sketch=0;points=[[0,0,0],[0.25,0,0],[0.5,0,0],[0.75,0,0],[1,0,0],[0,1,0],[0.25,1,0],[0.5,1,0],[0.75,1,0],[1,1,0],[0,0.25,0],[0,0.5,0],[0,0.75,0],[1,0.25,0],[1,0.5,0],[1,0.75,0]];outlineConnect=0;fontColor=default;gradientColor=#F78E04;gradientDirection=north;fillColor=#D05C17;strokeColor=#ffffff;dashed=0;verticalLabelPosition=bottom;verticalAlign=top;align=center;html=1;fontSize=12;fontStyle=0;aspect=fixed;shape=mxgraph.aws4.resourceIcon;resIcon=mxgraph.aws4.ec2;fontFamily=Verdana;labelBackgroundColor=none;labelBorderColor=none;" parent="1" vertex="1">
          <mxGeometry x="-240" y="30" width="20" height="20" as="geometry" />
        </mxCell>
        <UserObject label="&lt;font style=&quot;font-size: 8px&quot;&gt;&lt;b&gt;HA Proxy-1&lt;/b&gt;&lt;/font&gt;" placeholders="1" name="Variable" id="Z8JrCsb7fR4ESpWNixtX-9">
          <mxCell style="text;html=1;strokeColor=none;fillColor=none;align=center;verticalAlign=middle;whiteSpace=wrap;overflow=hidden;labelBackgroundColor=none;labelBorderColor=none;fontFamily=Verdana;fontColor=default;" parent="1" vertex="1">
            <mxGeometry x="-653.75" y="40" width="60" height="30" as="geometry" />
          </mxCell>
        </UserObject>
        <UserObject label="&lt;font style=&quot;font-size: 8px&quot;&gt;&lt;b&gt;HA Proxy-2&lt;/b&gt;&lt;/font&gt;" placeholders="1" name="Variable" id="Z8JrCsb7fR4ESpWNixtX-10">
          <mxCell style="text;html=1;strokeColor=none;fillColor=none;align=center;verticalAlign=middle;whiteSpace=wrap;overflow=hidden;labelBackgroundColor=none;labelBorderColor=none;fontFamily=Verdana;fontColor=default;" parent="1" vertex="1">
            <mxGeometry x="-345" y="40" width="60" height="30" as="geometry" />
          </mxCell>
        </UserObject>
        <mxCell id="Z8JrCsb7fR4ESpWNixtX-20" value="&lt;font style=&quot;font-size: 8px&quot;&gt;&lt;b&gt;CDPA APP&amp;nbsp;&lt;/b&gt;&lt;b style=&quot;font-size: 12px&quot;&gt;&lt;font color=&quot;#3333ff&quot;&gt;/27&lt;/font&gt;&lt;/b&gt;&lt;b&gt;&lt;br&gt;&lt;/b&gt;&lt;/font&gt;" style="points=[[0,0],[0.25,0],[0.5,0],[0.75,0],[1,0],[1,0.25],[1,0.5],[1,0.75],[1,1],[0.75,1],[0.5,1],[0.25,1],[0,1],[0,0.75],[0,0.5],[0,0.25]];outlineConnect=0;gradientColor=none;html=1;whiteSpace=wrap;fontSize=12;fontStyle=0;shape=mxgraph.aws4.group;grIcon=mxgraph.aws4.group_security_group;grStroke=0;strokeColor=#147EBA;fillColor=#E6F2F8;verticalAlign=top;align=left;spacingLeft=30;fontColor=#147EBA;dashed=0;" parent="1" vertex="1">
          <mxGeometry x="-440" y="90" width="260" height="90" as="geometry" />
        </mxCell>
        <mxCell id="Z8JrCsb7fR4ESpWNixtX-23" value="CDPA IL" style="sketch=0;outlineConnect=0;fontColor=#232F3E;gradientColor=none;strokeColor=#ffffff;fillColor=#232F3E;dashed=0;verticalLabelPosition=middle;verticalAlign=bottom;align=center;html=1;whiteSpace=wrap;fontSize=10;fontStyle=1;spacing=3;shape=mxgraph.aws4.productIcon;prIcon=mxgraph.aws4.ec2;labelBackgroundColor=none;labelBorderColor=none;fontFamily=Verdana;" parent="1" vertex="1">
          <mxGeometry x="-667.5" y="110" width="52.5" height="70" as="geometry" />
        </mxCell>
        <mxCell id="Z8JrCsb7fR4ESpWNixtX-29" value="CDPA IL" style="sketch=0;outlineConnect=0;fontColor=#232F3E;gradientColor=none;strokeColor=#ffffff;fillColor=#232F3E;dashed=0;verticalLabelPosition=middle;verticalAlign=bottom;align=center;html=1;whiteSpace=wrap;fontSize=10;fontStyle=1;spacing=3;shape=mxgraph.aws4.productIcon;prIcon=mxgraph.aws4.ec2;labelBackgroundColor=none;labelBorderColor=none;fontFamily=Verdana;" parent="1" vertex="1">
          <mxGeometry x="-310" y="105" width="52.5" height="70" as="geometry" />
        </mxCell>
        <mxCell id="Z8JrCsb7fR4ESpWNixtX-30" value="CDPA SC" style="sketch=0;outlineConnect=0;fontColor=#232F3E;gradientColor=none;strokeColor=#ffffff;fillColor=#232F3E;dashed=0;verticalLabelPosition=middle;verticalAlign=bottom;align=center;html=1;whiteSpace=wrap;fontSize=10;fontStyle=1;spacing=3;shape=mxgraph.aws4.productIcon;prIcon=mxgraph.aws4.ec2;labelBackgroundColor=none;labelBorderColor=none;fontFamily=Verdana;" parent="1" vertex="1">
          <mxGeometry x="-251.25" y="105" width="55" height="70" as="geometry" />
        </mxCell>
        <mxCell id="Z8JrCsb7fR4ESpWNixtX-31" value="CDPA IL" style="sketch=0;outlineConnect=0;fontColor=#232F3E;gradientColor=none;strokeColor=#ffffff;fillColor=#232F3E;dashed=0;verticalLabelPosition=middle;verticalAlign=bottom;align=center;html=1;whiteSpace=wrap;fontSize=10;fontStyle=1;spacing=3;shape=mxgraph.aws4.productIcon;prIcon=mxgraph.aws4.ec2;labelBackgroundColor=none;labelBorderColor=none;fontFamily=Verdana;" parent="1" vertex="1">
          <mxGeometry x="-363" y="105" width="52.5" height="70" as="geometry" />
        </mxCell>
        <mxCell id="Z8JrCsb7fR4ESpWNixtX-33" value="Deployment" style="sketch=0;outlineConnect=0;fontColor=#232F3E;gradientColor=none;strokeColor=#ffffff;fillColor=#232F3E;dashed=0;verticalLabelPosition=middle;verticalAlign=bottom;align=center;html=1;whiteSpace=wrap;fontSize=10;fontStyle=1;spacing=3;shape=mxgraph.aws4.productIcon;prIcon=mxgraph.aws4.ec2;labelBackgroundColor=none;labelBorderColor=none;fontFamily=Verdana;" parent="1" vertex="1">
          <mxGeometry x="-555" y="110" width="55" height="70" as="geometry" />
        </mxCell>
        <mxCell id="Z8JrCsb7fR4ESpWNixtX-34" value="&lt;font&gt;&lt;b style=&quot;font-size: 8px&quot;&gt;NOKIA &lt;/b&gt;&lt;font color=&quot;#ff33ff&quot; style=&quot;font-size: 12px&quot;&gt;&lt;b&gt;/27&lt;/b&gt;&lt;/font&gt;&lt;br&gt;&lt;b style=&quot;font-size: 8px&quot;&gt;DB Subnet&lt;/b&gt;&lt;br&gt;&lt;/font&gt;" style="points=[[0,0],[0.25,0],[0.5,0],[0.75,0],[1,0],[1,0.25],[1,0.5],[1,0.75],[1,1],[0.75,1],[0.5,1],[0.25,1],[0,1],[0,0.75],[0,0.5],[0,0.25]];outlineConnect=0;gradientColor=none;html=1;whiteSpace=wrap;fontSize=12;fontStyle=0;shape=mxgraph.aws4.group;grIcon=mxgraph.aws4.group_security_group;grStroke=0;strokeColor=#147EBA;fillColor=#E6F2F8;verticalAlign=top;align=left;spacingLeft=30;fontColor=#147EBA;dashed=0;" parent="1" vertex="1">
          <mxGeometry x="-760" y="200" width="270" height="80" as="geometry" />
        </mxCell>
        <mxCell id="Z8JrCsb7fR4ESpWNixtX-36" value="&lt;font style=&quot;font-size: 8px&quot;&gt;CDPA SC DB&lt;/font&gt;" style="sketch=0;outlineConnect=0;fontColor=#232F3E;gradientColor=none;strokeColor=#ffffff;fillColor=#232F3E;dashed=0;verticalLabelPosition=middle;verticalAlign=bottom;align=center;html=1;whiteSpace=wrap;fontSize=10;fontStyle=1;spacing=3;shape=mxgraph.aws4.productIcon;prIcon=mxgraph.aws4.ec2;labelBackgroundColor=none;labelBorderColor=none;fontFamily=Verdana;" parent="1" vertex="1">
          <mxGeometry x="-620.94" y="205" width="36.25" height="70" as="geometry" />
        </mxCell>
        <mxCell id="Z8JrCsb7fR4ESpWNixtX-37" value="&lt;font style=&quot;font-size: 8px&quot;&gt;CDPA IL DB&lt;/font&gt;" style="sketch=0;outlineConnect=0;fontColor=#232F3E;gradientColor=none;strokeColor=#ffffff;fillColor=#232F3E;dashed=0;verticalLabelPosition=middle;verticalAlign=bottom;align=center;html=1;whiteSpace=wrap;fontSize=10;fontStyle=1;spacing=3;shape=mxgraph.aws4.productIcon;prIcon=mxgraph.aws4.ec2;labelBackgroundColor=none;labelBorderColor=none;fontFamily=Verdana;" parent="1" vertex="1">
          <mxGeometry x="-662.8100000000001" y="205" width="36.25" height="70" as="geometry" />
        </mxCell>
        <mxCell id="Z8JrCsb7fR4ESpWNixtX-38" value="&lt;font style=&quot;font-size: 8px&quot;&gt;&lt;b&gt;NOKIA&amp;nbsp;&lt;/b&gt;&lt;font color=&quot;#ff33ff&quot; style=&quot;font-size: 12px&quot;&gt;&lt;b&gt;/27&lt;/b&gt;&lt;/font&gt;&lt;br style=&quot;font-size: 12px&quot;&gt;&lt;b&gt;DB Subnet&lt;/b&gt;&lt;b&gt;&lt;br&gt;&lt;/b&gt;&lt;/font&gt;" style="points=[[0,0],[0.25,0],[0.5,0],[0.75,0],[1,0],[1,0.25],[1,0.5],[1,0.75],[1,1],[0.75,1],[0.5,1],[0.25,1],[0,1],[0,0.75],[0,0.5],[0,0.25]];outlineConnect=0;gradientColor=none;html=1;whiteSpace=wrap;fontSize=12;fontStyle=0;shape=mxgraph.aws4.group;grIcon=mxgraph.aws4.group_security_group;grStroke=0;strokeColor=#147EBA;fillColor=#E6F2F8;verticalAlign=top;align=left;spacingLeft=30;fontColor=#147EBA;dashed=0;" parent="1" vertex="1">
          <mxGeometry x="-450" y="200" width="280" height="80" as="geometry" />
        </mxCell>
        <mxCell id="Z8JrCsb7fR4ESpWNixtX-39" value="&lt;font style=&quot;font-size: 8px&quot;&gt;CDPA SC DB&lt;/font&gt;" style="sketch=0;outlineConnect=0;fontColor=#232F3E;gradientColor=none;strokeColor=#ffffff;fillColor=#232F3E;dashed=0;verticalLabelPosition=middle;verticalAlign=bottom;align=center;html=1;whiteSpace=wrap;fontSize=10;fontStyle=1;spacing=3;shape=mxgraph.aws4.productIcon;prIcon=mxgraph.aws4.ec2;labelBackgroundColor=none;labelBorderColor=none;fontFamily=Verdana;" parent="1" vertex="1">
          <mxGeometry x="-305" y="205" width="36.25" height="70" as="geometry" />
        </mxCell>
        <mxCell id="Z8JrCsb7fR4ESpWNixtX-40" value="&lt;font style=&quot;font-size: 8px&quot;&gt;CDPA IL DB&lt;/font&gt;" style="sketch=0;outlineConnect=0;fontColor=#232F3E;gradientColor=none;strokeColor=#ffffff;fillColor=#232F3E;dashed=0;verticalLabelPosition=middle;verticalAlign=bottom;align=center;html=1;whiteSpace=wrap;fontSize=10;fontStyle=1;spacing=3;shape=mxgraph.aws4.productIcon;prIcon=mxgraph.aws4.ec2;labelBackgroundColor=none;labelBorderColor=none;fontFamily=Verdana;" parent="1" vertex="1">
          <mxGeometry x="-346.25" y="205" width="36.25" height="70" as="geometry" />
        </mxCell>
        <mxCell id="Z8JrCsb7fR4ESpWNixtX-42" value="&lt;font style=&quot;font-size: 8px&quot;&gt;Archive DB&lt;/font&gt;" style="sketch=0;outlineConnect=0;fontColor=#232F3E;gradientColor=none;strokeColor=#ffffff;fillColor=#232F3E;dashed=0;verticalLabelPosition=middle;verticalAlign=bottom;align=center;html=1;whiteSpace=wrap;fontSize=10;fontStyle=1;spacing=3;shape=mxgraph.aws4.productIcon;prIcon=mxgraph.aws4.ec2;labelBackgroundColor=none;labelBorderColor=none;fontFamily=Verdana;" parent="1" vertex="1">
          <mxGeometry x="-560" y="205" width="40" height="70" as="geometry" />
        </mxCell>
        <UserObject label="&lt;font style=&quot;font-size: 8px&quot;&gt;&lt;b&gt;Jump Box-2&lt;/b&gt;&lt;/font&gt;" placeholders="1" name="Variable" id="Z8JrCsb7fR4ESpWNixtX-79">
          <mxCell style="text;html=1;strokeColor=none;fillColor=none;align=center;verticalAlign=middle;whiteSpace=wrap;overflow=hidden;labelBackgroundColor=none;labelBorderColor=none;fontFamily=Verdana;fontColor=default;" parent="1" vertex="1">
            <mxGeometry x="-260" y="40" width="60" height="30" as="geometry" />
          </mxCell>
        </UserObject>
        <mxCell id="Z8JrCsb7fR4ESpWNixtX-82" value="CDPA SC" style="sketch=0;outlineConnect=0;fontColor=#232F3E;gradientColor=none;strokeColor=#ffffff;fillColor=#232F3E;dashed=0;verticalLabelPosition=middle;verticalAlign=bottom;align=center;html=1;whiteSpace=wrap;fontSize=10;fontStyle=1;spacing=3;shape=mxgraph.aws4.productIcon;prIcon=mxgraph.aws4.ec2;labelBackgroundColor=none;labelBorderColor=none;fontFamily=Verdana;" parent="1" vertex="1">
          <mxGeometry x="-617.5" y="110" width="52.5" height="70" as="geometry" />
        </mxCell>
        <mxCell id="YtqRZjxFbGC5gs0Mnf0e-15" value="" style="shape=image;verticalLabelPosition=bottom;labelBackgroundColor=#ffffff;verticalAlign=top;aspect=fixed;imageAspect=0;image=data:image/png,iVBORw0KGgoAAAANSUhEUgAAAB8AAAAfCAYAAAAfrhY5AAACFUlEQVRYCe2XPU8CQRCG+S/2GEuM0dKPWFNYamNlbLRRKlETEgu0oDsaKj8KLbSwsLAyMfFPGKKtgIWKa54l72VZT1lOA4WSHHM3OzPvzLyzC5d5bNRN67llRkYnB3Jlx2fMa/vFgJvhqzlI8Nx0N/gfqtxre7+VlytV89Ro2hm5rz+YrdJ+8Lyk5nxhacXc3N4ZSYaURJZXN8zl1bXV9xrcbL+cT83mzcnZhQVScJIQOHJsYs6uY8e97HwZXHknYGSqtSNDAm4gH1xr2NGFr6jI5gI5T2qlmxCA6ohfLdTgr6QkgytXdXJUQKR0SOnXNne69L4/tsGcu87z+cWuSqCCYAybqmb4iqWDOAHXX8mmqpzqCK4gBF4v7Nq2S5dkozXJYM7dzP3A7HOfU9/G9Y/BQ89219kPzOGSCjx0n38Hzhp8M+2qStsMPTrXXzapOT8+PY+BNHDwTlcIzj0JMHR0JRE8dJ/7zhowgaka9NhqncEkCXVAdsi+KieI69w5ZKq2Mva1QF0bkkPv+1rwUM5xhlNarL0sEJ6TKgOYlrv7XT4WPHTa5UQSBCxXok9JuDbMBC33E5WNBQ/l3HXiXlW5PxodGiLboaQ2+zGCOfcd9SxOo9qh7QhHr9Z6yeCzvVegfkAV68eVK1AaGXy2pwney2fIlSf8by8U90x8bTv36H/5ueuNpf3+Zgb5+Qe3L4rDavsHpWfGW2TbLVAAAAAASUVORK5CYII=;" parent="1" vertex="1">
          <mxGeometry x="360" y="180" width="31" height="31" as="geometry" />
        </mxCell>
        <mxCell id="yngDd88oYSayp2hVPGJs-34" value="&lt;span&gt;Workers Instance&lt;/span&gt;" style="points=[[0,0],[0.25,0],[0.5,0],[0.75,0],[1,0],[1,0.25],[1,0.5],[1,0.75],[1,1],[0.75,1],[0.5,1],[0.25,1],[0,1],[0,0.75],[0,0.5],[0,0.25]];outlineConnect=0;gradientColor=none;html=1;whiteSpace=wrap;fontSize=12;fontStyle=0;shape=mxgraph.aws4.group;grIcon=mxgraph.aws4.group_ec2_instance_contents;strokeColor=#D86613;fillColor=none;verticalAlign=top;align=left;spacingLeft=30;fontColor=#D86613;dashed=0;" parent="1" vertex="1">
          <mxGeometry x="-664.06" y="415" width="444.06" height="85" as="geometry" />
        </mxCell>
        <mxCell id="yngDd88oYSayp2hVPGJs-131" style="edgeStyle=orthogonalEdgeStyle;rounded=0;orthogonalLoop=1;jettySize=auto;html=1;entryX=0;entryY=0.5;entryDx=0;entryDy=0;fontSize=10;" parent="1" source="yngDd88oYSayp2hVPGJs-42" target="yngDd88oYSayp2hVPGJs-34" edge="1">
          <mxGeometry relative="1" as="geometry" />
        </mxCell>
        <mxCell id="yngDd88oYSayp2hVPGJs-133" style="edgeStyle=orthogonalEdgeStyle;rounded=0;orthogonalLoop=1;jettySize=auto;html=1;entryX=0;entryY=0.5;entryDx=0;entryDy=0;fontSize=10;" parent="1" source="yngDd88oYSayp2hVPGJs-42" target="yngDd88oYSayp2hVPGJs-2" edge="1">
          <mxGeometry relative="1" as="geometry" />
        </mxCell>
        <mxCell id="yngDd88oYSayp2hVPGJs-42" value="" style="sketch=0;points=[[0,0,0],[0.25,0,0],[0.5,0,0],[0.75,0,0],[1,0,0],[0,1,0],[0.25,1,0],[0.5,1,0],[0.75,1,0],[1,1,0],[0,0.25,0],[0,0.5,0],[0,0.75,0],[1,0.25,0],[1,0.5,0],[1,0.75,0]];outlineConnect=0;fontColor=#232F3E;gradientColor=#F78E04;gradientDirection=north;fillColor=#D05C17;strokeColor=#ffffff;dashed=0;verticalLabelPosition=bottom;verticalAlign=top;align=center;html=1;fontSize=12;fontStyle=0;aspect=fixed;shape=mxgraph.aws4.resourceIcon;resIcon=mxgraph.aws4.eks;" parent="1" vertex="1">
          <mxGeometry x="-760" y="430.25" width="48" height="48" as="geometry" />
        </mxCell>
        <mxCell id="yngDd88oYSayp2hVPGJs-99" value="&lt;span style=&quot;font-size: 14px&quot;&gt;1&lt;/span&gt;" style="text;html=1;strokeColor=none;fillColor=none;align=center;verticalAlign=middle;whiteSpace=wrap;rounded=0;fontSize=8;" parent="1" vertex="1">
          <mxGeometry x="-266" y="324" width="26" height="10" as="geometry" />
        </mxCell>
        <mxCell id="yngDd88oYSayp2hVPGJs-101" value="&lt;span style=&quot;font-size: 12px&quot;&gt;EKS Sub-1&lt;br&gt;EKS Sub-2&lt;br&gt;Pub-Sub-1&lt;br&gt;Pub-Sub-2&lt;br&gt;&lt;/span&gt;" style="text;html=1;strokeColor=none;fillColor=none;align=center;verticalAlign=middle;whiteSpace=wrap;rounded=0;fontSize=8;" parent="1" vertex="1">
          <mxGeometry x="-740" y="304" width="70" height="40" as="geometry" />
        </mxCell>
        <mxCell id="yngDd88oYSayp2hVPGJs-102" value="&lt;font style=&quot;font-size: 14px&quot;&gt;3&lt;/font&gt;" style="text;html=1;strokeColor=none;fillColor=none;align=center;verticalAlign=middle;whiteSpace=wrap;rounded=0;fontSize=8;" parent="1" vertex="1">
          <mxGeometry x="-266" y="445" width="26" height="10" as="geometry" />
        </mxCell>
        <mxCell id="yngDd88oYSayp2hVPGJs-108" value="&lt;font style=&quot;font-size: 10px&quot;&gt;&lt;b&gt;Worker Node&lt;/b&gt;&lt;/font&gt;" style="text;html=1;strokeColor=none;fillColor=none;align=center;verticalAlign=middle;whiteSpace=wrap;rounded=0;fontSize=8;" parent="1" vertex="1">
          <mxGeometry x="-390" y="330" width="58" height="10" as="geometry" />
        </mxCell>
        <mxCell id="yngDd88oYSayp2hVPGJs-109" value="&lt;font style=&quot;font-size: 10px&quot;&gt;&lt;b&gt;Worker Node&lt;/b&gt;&lt;/font&gt;" style="text;html=1;strokeColor=none;fillColor=none;align=center;verticalAlign=middle;whiteSpace=wrap;rounded=0;fontSize=8;" parent="1" vertex="1">
          <mxGeometry x="-372.16" y="447.5" width="58" height="10" as="geometry" />
        </mxCell>
        <mxCell id="yngDd88oYSayp2hVPGJs-116" value="&lt;font style=&quot;font-size: 10px&quot;&gt;&lt;b&gt;Worker Node&lt;/b&gt;&lt;/font&gt;" style="text;html=1;strokeColor=none;fillColor=none;align=center;verticalAlign=middle;whiteSpace=wrap;rounded=0;fontSize=8;" parent="1" vertex="1">
          <mxGeometry x="-607.87" y="340" width="58" height="10" as="geometry" />
        </mxCell>
        <mxCell id="yngDd88oYSayp2hVPGJs-117" value="&lt;font style=&quot;font-size: 14px&quot;&gt;1&lt;/font&gt;" style="text;html=1;strokeColor=none;fillColor=none;align=center;verticalAlign=middle;whiteSpace=wrap;rounded=0;fontSize=8;" parent="1" vertex="1">
          <mxGeometry x="-501" y="334" width="26" height="10" as="geometry" />
        </mxCell>
        <mxCell id="yngDd88oYSayp2hVPGJs-119" value="&lt;font style=&quot;font-size: 10px&quot;&gt;&lt;b&gt;Worker Node&lt;/b&gt;&lt;/font&gt;" style="text;html=1;strokeColor=none;fillColor=none;align=center;verticalAlign=middle;whiteSpace=wrap;rounded=0;fontSize=8;" parent="1" vertex="1">
          <mxGeometry x="-607.87" y="445" width="58" height="10" as="geometry" />
        </mxCell>
        <mxCell id="yngDd88oYSayp2hVPGJs-120" value="&lt;font style=&quot;font-size: 14px&quot;&gt;3&lt;/font&gt;" style="text;html=1;strokeColor=none;fillColor=none;align=center;verticalAlign=middle;whiteSpace=wrap;rounded=0;fontSize=8;" parent="1" vertex="1">
          <mxGeometry x="-510" y="445" width="26" height="10" as="geometry" />
        </mxCell>
        <mxCell id="yngDd88oYSayp2hVPGJs-121" value="&lt;font style=&quot;font-size: 10px&quot;&gt;&lt;b&gt;EKS Master&lt;/b&gt;&lt;/font&gt;" style="text;html=1;strokeColor=none;fillColor=none;align=center;verticalAlign=middle;whiteSpace=wrap;rounded=0;fontSize=8;" parent="1" vertex="1">
          <mxGeometry x="-755" y="380" width="58" height="10" as="geometry" />
        </mxCell>
        <mxCell id="yngDd88oYSayp2hVPGJs-122" value="" style="aspect=fixed;perimeter=ellipsePerimeter;html=1;align=center;shadow=0;dashed=0;spacingTop=3;image;image=img/lib/active_directory/generic_node.svg;fontSize=8;" parent="1" vertex="1">
          <mxGeometry x="-549.87" y="315.5" width="45.41" height="44.5" as="geometry" />
        </mxCell>
        <mxCell id="yngDd88oYSayp2hVPGJs-123" value="" style="aspect=fixed;perimeter=ellipsePerimeter;html=1;align=center;shadow=0;dashed=0;spacingTop=3;image;image=img/lib/active_directory/generic_node.svg;fontSize=8;" parent="1" vertex="1">
          <mxGeometry x="-314.15999999999997" y="314" width="45.41" height="44.5" as="geometry" />
        </mxCell>
        <mxCell id="yngDd88oYSayp2hVPGJs-124" value="" style="aspect=fixed;perimeter=ellipsePerimeter;html=1;align=center;shadow=0;dashed=0;spacingTop=3;image;image=img/lib/active_directory/generic_node.svg;fontSize=8;" parent="1" vertex="1">
          <mxGeometry x="-555" y="430.25" width="45.41" height="44.5" as="geometry" />
        </mxCell>
        <mxCell id="yngDd88oYSayp2hVPGJs-125" value="" style="aspect=fixed;perimeter=ellipsePerimeter;html=1;align=center;shadow=0;dashed=0;spacingTop=3;image;image=img/lib/active_directory/generic_node.svg;fontSize=8;" parent="1" vertex="1">
          <mxGeometry x="-314.15999999999997" y="427.75" width="45.41" height="44.5" as="geometry" />
        </mxCell>
        <mxCell id="j8cOIRnZeEOc3zfSii1--4" value="&lt;font color=&quot;#ff33ff&quot;&gt;&lt;b&gt;VPC /22&lt;/b&gt;&lt;/font&gt;" style="points=[[0,0],[0.25,0],[0.5,0],[0.75,0],[1,0],[1,0.25],[1,0.5],[1,0.75],[1,1],[0.75,1],[0.5,1],[0.25,1],[0,1],[0,0.75],[0,0.5],[0,0.25]];outlineConnect=0;gradientColor=none;html=1;whiteSpace=wrap;fontSize=12;fontStyle=0;shape=mxgraph.aws4.group;grIcon=mxgraph.aws4.group_vpc;strokeColor=#248814;fillColor=none;verticalAlign=top;align=left;spacingLeft=30;fontColor=#AAB7B8;dashed=0;" vertex="1" parent="1">
          <mxGeometry x="-820" y="-40" width="700" height="640" as="geometry" />
        </mxCell>
        <mxCell id="j8cOIRnZeEOc3zfSii1--5" value="&lt;b&gt;N.Virginia&lt;/b&gt;" style="points=[[0,0],[0.25,0],[0.5,0],[0.75,0],[1,0],[1,0.25],[1,0.5],[1,0.75],[1,1],[0.75,1],[0.5,1],[0.25,1],[0,1],[0,0.75],[0,0.5],[0,0.25]];outlineConnect=0;gradientColor=none;html=1;whiteSpace=wrap;fontSize=12;fontStyle=0;shape=mxgraph.aws4.group;grIcon=mxgraph.aws4.group_region;strokeColor=#147EBA;fillColor=none;verticalAlign=top;align=left;spacingLeft=30;fontColor=#147EBA;dashed=1;" vertex="1" parent="1">
          <mxGeometry x="-840" y="-70" width="740" height="690" as="geometry" />
        </mxCell>
        <mxCell id="j8cOIRnZeEOc3zfSii1--6" value="&lt;b&gt;Nokia-QA&lt;/b&gt;" style="points=[[0,0],[0.25,0],[0.5,0],[0.75,0],[1,0],[1,0.25],[1,0.5],[1,0.75],[1,1],[0.75,1],[0.5,1],[0.25,1],[0,1],[0,0.75],[0,0.5],[0,0.25]];outlineConnect=0;gradientColor=none;html=1;whiteSpace=wrap;fontSize=12;fontStyle=0;shape=mxgraph.aws4.group;grIcon=mxgraph.aws4.group_aws_cloud_alt;strokeColor=#232F3E;fillColor=none;verticalAlign=top;align=left;spacingLeft=30;fontColor=#232F3E;dashed=0;" vertex="1" parent="1">
          <mxGeometry x="-870" y="-100" width="780" height="730" as="geometry" />
        </mxCell>
      </root>
    </mxGraphModel>
  </diagram>
</mxfile>
